<svg clip-rule="evenodd" fill-rule="evenodd" stroke-linejoin="round" stroke-miterlimit="2" viewBox="0 0 547 56" xmlns="http://www.w3.org/2000/svg"><g fill="#fff" fill-rule="nonzero"><path d="m42.8 31.6h-6.1v-30.7h-9.4l-27.3 31.9v10.3h24.2v11.1h12.6v-11.1h6.1v-11.5zm-25.9 0 7.3-8.9v8.9z"/><path d="m94.8 1h-15.6l-12.3 17.1-12.3-17.1h-15.8l20.3 26.9-19.8 26.3h15.7l11.9-16.5 11.9 16.5h15.7l-19.8-26.3z"/><path d="m126.6.9h-9.4l-27.3 31.9v10.3h24.1v11.1h12.6v-11.1h6.1v-11.5h-6.1zm-19.9 30.7 7.3-8.9v8.9zm93.9-30.6h-41.4v11.4h14.4v41.8h12.6v-41.8h14.4zm53.2 26.6c0-3.8-.7-7.4-2.2-10.7-1.4-3.3-3.4-6.3-5.9-8.8s-5.4-4.5-8.7-5.9c-3.3-1.4-7-2.2-10.8-2.2s-7.4.7-10.7 2.2c-3.3 1.4-6.3 3.4-8.7 5.9-2.5 2.5-4.5 5.4-5.9 8.8s-2.2 7-2.2 10.7c0 3.8.7 7.4 2.2 10.8 1.4 3.3 3.4 6.3 5.9 8.7 2.5 2.5 5.4 4.5 8.7 5.9s6.9 2.2 10.7 2.2 7.4-.7 10.8-2.2c3.3-1.4 6.3-3.4 8.7-5.9 2.5-2.5 4.5-5.4 5.9-8.7 1.5-3.4 2.2-7 2.2-10.8zm-27.6 15.7c-2.1 0-4-.4-5.8-1.3s-3.4-2-4.8-3.5c-1.4-1.4-2.5-3.1-3.3-5s-1.2-3.9-1.2-6c0-2 .4-4 1.2-5.9s1.9-3.6 3.2-5c1.4-1.4 3-2.6 4.8-3.4 1.9-.8 3.9-1.3 5.9-1.3s4 .4 5.8 1.3 3.4 2 4.8 3.4 2.4 3.1 3.2 5 1.2 3.9 1.2 5.9c0 2.1-.4 4.1-1.2 6s-1.9 3.6-3.3 5-3 2.6-4.8 3.5c-1.6.9-3.6 1.3-5.7 1.3zm80.9-2.1c1.5-2.9 2.5-6 2.7-9.3.1-.4.1-1 .1-1.8 0-.7 0-1.4.1-2.2 0-.8 0-1.7.1-2.6l.1-1.5h-32v11.6h17.9c-.3.7-.8 1.4-1.2 2.1-.9 1.2-2 2.3-3.2 3.1-1.2.9-2.5 1.6-4 2-1.5.5-3 .7-4.6.7-2.1 0-4-.4-5.8-1.3s-3.4-2-4.8-3.4-2.5-3.1-3.3-5-1.2-3.9-1.2-6c0-2 .4-4 1.2-5.9s1.9-3.6 3.2-5c1.4-1.4 3-2.6 4.8-3.4s3.7-1.3 5.8-1.3c2.5 0 4.8.7 6.9 2 2.2 1.4 4 3 5.3 5l.8 1.1 10.7-6.5-.8-1.3c-2.5-3.7-5.7-6.7-9.7-8.9s-8.4-3.3-13.2-3.3c-3.8 0-7.4.7-10.7 2.2-3.3 1.4-6.3 3.4-8.8 5.9s-4.5 5.4-5.9 8.8c-1.5 3.4-2.2 7-2.2 10.7 0 3.8.7 7.4 2.2 10.7s3.5 6.3 5.9 8.7c2.5 2.5 5.4 4.5 8.8 5.9 3.3 1.4 6.9 2.2 10.7 2.2 3.4 0 6.7-.6 9.8-1.7 3.1-1.2 5.9-2.8 8.3-4.8 2.5-2.1 4.5-4.6 6-7.5zm7 13h40v-11.6h-27.4v-8.9h24.3v-11.6h-24.3v-9.7h27.4v-11.4h-40zm42.5-41.8h14.5v41.8h12.5v-41.8h14.4v-11.4h-41.4zm77.9 10.4h-21.9v-21.8h-12.6v53.2h12.6v-20h21.9v20h12.5v-53.2h-12.5zm19.7 31.4h40v-11.6h-27.4v-8.9h24.3v-11.6h-24.3v-9.7h27.4v-11.4h-40zm90.5-2.3c-3.7-5.2-7.6-10.4-11.4-15.5 2.7-1.4 4.8-3.3 6.6-5.9 2.1-3.1 3.1-6.7 3.1-10.8 0-2.7-.5-5.2-1.4-7.5s-2.2-4.3-3.9-6-3.7-3-6-3.9-4.9-1.4-7.6-1.4h-24.3v53.3h12.6v-16h7.3c1.8 2.5 3.6 5 5.3 7.5 1.9 2.7 3.9 5.3 5.9 7.9l.4.6h15.1zm-32.3-39.5h11.8c1.4 0 2.5.2 3.3.7s1.4 1.1 1.9 1.9.8 1.6.9 2.4c.2.9.3 1.7.3 2.4 0 1.2-.2 2.2-.6 3.1s-.9 1.6-1.5 2.2-1.2 1-2 1.3-1.5.4-2.2.4h-11.8v-14.4z"/></g></svg>